<mxfile host="app.diagrams.net" modified="2024-04-22T17:58:07.343Z" agent="Mozilla/5.0 (Windows NT 10.0; Win64; x64) AppleWebKit/537.36 (KHTML, like Gecko) Chrome/123.0.0.0 Safari/537.36" etag="rRpROy0VHVvY117OKCkC" version="24.2.8" type="device">
  <diagram name="Página-1" id="Mzc0rbO9y2dkz6MEeIC5">
    <mxGraphModel dx="2261" dy="788" grid="0" gridSize="10" guides="1" tooltips="1" connect="1" arrows="1" fold="1" page="1" pageScale="1" pageWidth="827" pageHeight="1169" math="0" shadow="0">
      <root>
        <mxCell id="0" />
        <mxCell id="1" parent="0" />
        <mxCell id="2JWjzQQnNs1yH1yFFYB9-5" value="" style="group;strokeWidth=6;" parent="1" vertex="1" connectable="0">
          <mxGeometry x="209" y="447" width="60" height="78" as="geometry" />
        </mxCell>
        <mxCell id="2JWjzQQnNs1yH1yFFYB9-1" value="" style="shape=cylinder3;whiteSpace=wrap;html=1;boundedLbl=1;backgroundOutline=1;size=15;strokeWidth=2;fillColor=#f8cecc;strokeColor=#b85450;" parent="2JWjzQQnNs1yH1yFFYB9-5" vertex="1">
          <mxGeometry y="36" width="60" height="42" as="geometry" />
        </mxCell>
        <mxCell id="2JWjzQQnNs1yH1yFFYB9-2" value="" style="shape=cylinder3;whiteSpace=wrap;html=1;boundedLbl=1;backgroundOutline=1;size=15;strokeWidth=2;fillColor=#f8cecc;strokeColor=#b85450;" parent="2JWjzQQnNs1yH1yFFYB9-5" vertex="1">
          <mxGeometry y="24" width="60" height="42" as="geometry" />
        </mxCell>
        <mxCell id="2JWjzQQnNs1yH1yFFYB9-3" value="" style="shape=cylinder3;whiteSpace=wrap;html=1;boundedLbl=1;backgroundOutline=1;size=15;strokeWidth=2;fillColor=#f8cecc;strokeColor=#b85450;" parent="2JWjzQQnNs1yH1yFFYB9-5" vertex="1">
          <mxGeometry y="12" width="60" height="42" as="geometry" />
        </mxCell>
        <mxCell id="2JWjzQQnNs1yH1yFFYB9-4" value="" style="shape=cylinder3;whiteSpace=wrap;html=1;boundedLbl=1;backgroundOutline=1;size=15;strokeWidth=2;fillColor=#f8cecc;strokeColor=#b85450;" parent="2JWjzQQnNs1yH1yFFYB9-5" vertex="1">
          <mxGeometry width="60" height="42" as="geometry" />
        </mxCell>
        <mxCell id="2JWjzQQnNs1yH1yFFYB9-6" value="" style="group;strokeWidth=6;" parent="1" vertex="1" connectable="0">
          <mxGeometry x="209" y="275" width="60" height="78" as="geometry" />
        </mxCell>
        <mxCell id="2JWjzQQnNs1yH1yFFYB9-7" value="" style="shape=cylinder3;whiteSpace=wrap;html=1;boundedLbl=1;backgroundOutline=1;size=15;strokeWidth=2;fillColor=#ffe6cc;strokeColor=#d79b00;" parent="2JWjzQQnNs1yH1yFFYB9-6" vertex="1">
          <mxGeometry y="36" width="60" height="42" as="geometry" />
        </mxCell>
        <mxCell id="2JWjzQQnNs1yH1yFFYB9-8" value="" style="shape=cylinder3;whiteSpace=wrap;html=1;boundedLbl=1;backgroundOutline=1;size=15;strokeWidth=2;fillColor=#ffe6cc;strokeColor=#d79b00;" parent="2JWjzQQnNs1yH1yFFYB9-6" vertex="1">
          <mxGeometry y="24" width="60" height="42" as="geometry" />
        </mxCell>
        <mxCell id="2JWjzQQnNs1yH1yFFYB9-9" value="" style="shape=cylinder3;whiteSpace=wrap;html=1;boundedLbl=1;backgroundOutline=1;size=15;strokeWidth=2;fillColor=#ffe6cc;strokeColor=#d79b00;" parent="2JWjzQQnNs1yH1yFFYB9-6" vertex="1">
          <mxGeometry y="12" width="60" height="42" as="geometry" />
        </mxCell>
        <mxCell id="2JWjzQQnNs1yH1yFFYB9-10" value="" style="shape=cylinder3;whiteSpace=wrap;html=1;boundedLbl=1;backgroundOutline=1;size=15;strokeWidth=2;fillColor=#ffe6cc;strokeColor=#d79b00;" parent="2JWjzQQnNs1yH1yFFYB9-6" vertex="1">
          <mxGeometry width="60" height="42" as="geometry" />
        </mxCell>
        <mxCell id="2JWjzQQnNs1yH1yFFYB9-11" value="&lt;font face=&quot;Tahoma&quot;&gt;&lt;b&gt;Repositorios&lt;/b&gt;&lt;/font&gt;&lt;div&gt;&lt;font face=&quot;Tahoma&quot;&gt;&lt;b&gt;Acadé&lt;span style=&quot;background-color: initial;&quot;&gt;micos&lt;/span&gt;&lt;/b&gt;&lt;/font&gt;&lt;/div&gt;" style="text;html=1;align=center;verticalAlign=middle;resizable=0;points=[];autosize=1;strokeColor=none;fillColor=none;fontSize=16;" parent="1" vertex="1">
          <mxGeometry x="180" y="353" width="119" height="52" as="geometry" />
        </mxCell>
        <mxCell id="2JWjzQQnNs1yH1yFFYB9-12" value="&lt;b style=&quot;&quot;&gt;&lt;font face=&quot;Tahoma&quot;&gt;Repositorios&lt;/font&gt;&lt;/b&gt;&lt;div&gt;&lt;b style=&quot;&quot;&gt;&lt;font face=&quot;Tahoma&quot;&gt;de Código&lt;/font&gt;&lt;/b&gt;&lt;/div&gt;" style="text;html=1;align=center;verticalAlign=middle;resizable=0;points=[];autosize=1;strokeColor=none;fillColor=none;fontSize=16;" parent="1" vertex="1">
          <mxGeometry x="180" y="529" width="119" height="52" as="geometry" />
        </mxCell>
        <mxCell id="2JWjzQQnNs1yH1yFFYB9-13" value="&lt;font style=&quot;font-size: 16px;&quot; face=&quot;Tahoma&quot;&gt;&lt;b&gt;Cadena de Búsqueda&lt;/b&gt;&lt;/font&gt;" style="shape=hexagon;perimeter=hexagonPerimeter2;whiteSpace=wrap;html=1;fixedSize=1;strokeWidth=2;" parent="1" vertex="1">
          <mxGeometry x="-12" y="383" width="112" height="57" as="geometry" />
        </mxCell>
        <mxCell id="2JWjzQQnNs1yH1yFFYB9-14" style="edgeStyle=orthogonalEdgeStyle;rounded=0;orthogonalLoop=1;jettySize=auto;html=1;exitX=1;exitY=0.5;exitDx=0;exitDy=0;entryX=0;entryY=0;entryDx=0;entryDy=15;entryPerimeter=0;fontSize=12;startSize=8;endSize=8;strokeColor=#7EA6E0;strokeWidth=2;" parent="1" source="2JWjzQQnNs1yH1yFFYB9-13" target="2JWjzQQnNs1yH1yFFYB9-8" edge="1">
          <mxGeometry relative="1" as="geometry" />
        </mxCell>
        <mxCell id="2JWjzQQnNs1yH1yFFYB9-15" style="edgeStyle=orthogonalEdgeStyle;rounded=0;orthogonalLoop=1;jettySize=auto;html=1;exitX=1;exitY=0.5;exitDx=0;exitDy=0;entryX=0;entryY=0.5;entryDx=0;entryDy=0;entryPerimeter=0;fontSize=12;startSize=8;endSize=8;strokeColor=#7EA6E0;strokeWidth=2;" parent="1" source="2JWjzQQnNs1yH1yFFYB9-13" target="2JWjzQQnNs1yH1yFFYB9-2" edge="1">
          <mxGeometry relative="1" as="geometry">
            <Array as="points">
              <mxPoint x="155" y="412" />
              <mxPoint x="155" y="492" />
            </Array>
          </mxGeometry>
        </mxCell>
        <mxCell id="2JWjzQQnNs1yH1yFFYB9-19" value="&lt;font face=&quot;Tahoma&quot; style=&quot;font-size: 16px;&quot;&gt;&lt;b&gt;Espacio de&amp;nbsp;&lt;/b&gt;&lt;/font&gt;&lt;div style=&quot;font-size: 16px;&quot;&gt;&lt;font face=&quot;Tahoma&quot; style=&quot;font-size: 16px;&quot;&gt;&lt;b&gt;Búsqueda&lt;/b&gt;&lt;/font&gt;&lt;/div&gt;" style="ellipse;shape=cloud;whiteSpace=wrap;html=1;fillColor=#fff2cc;strokeColor=#d6b656;strokeWidth=2;" parent="1" vertex="1">
          <mxGeometry x="311" y="365" width="142" height="82" as="geometry" />
        </mxCell>
        <mxCell id="2JWjzQQnNs1yH1yFFYB9-26" style="edgeStyle=orthogonalEdgeStyle;rounded=0;orthogonalLoop=1;jettySize=auto;html=1;exitX=1;exitY=0.5;exitDx=0;exitDy=0;exitPerimeter=0;entryX=0.318;entryY=0.155;entryDx=0;entryDy=0;entryPerimeter=0;fontSize=12;startSize=8;endSize=8;strokeWidth=2;strokeColor=#7EA6E0;" parent="1" source="2JWjzQQnNs1yH1yFFYB9-9" target="2JWjzQQnNs1yH1yFFYB9-19" edge="1">
          <mxGeometry relative="1" as="geometry">
            <Array as="points">
              <mxPoint x="269" y="313" />
              <mxPoint x="356" y="313" />
            </Array>
          </mxGeometry>
        </mxCell>
        <mxCell id="2JWjzQQnNs1yH1yFFYB9-27" style="edgeStyle=orthogonalEdgeStyle;rounded=0;orthogonalLoop=1;jettySize=auto;html=1;exitX=1;exitY=0.5;exitDx=0;exitDy=0;exitPerimeter=0;entryX=0.31;entryY=0.8;entryDx=0;entryDy=0;entryPerimeter=0;fontSize=12;startSize=8;endSize=8;strokeWidth=2;strokeColor=#7EA6E0;" parent="1" source="2JWjzQQnNs1yH1yFFYB9-2" target="2JWjzQQnNs1yH1yFFYB9-19" edge="1">
          <mxGeometry relative="1" as="geometry" />
        </mxCell>
        <mxCell id="2JWjzQQnNs1yH1yFFYB9-29" style="edgeStyle=none;curved=1;rounded=0;orthogonalLoop=1;jettySize=auto;html=1;exitX=0.875;exitY=0.5;exitDx=0;exitDy=0;exitPerimeter=0;fontSize=12;startSize=8;endSize=8;strokeWidth=2;strokeColor=#7EA6E0;endArrow=none;endFill=0;" parent="1" source="2JWjzQQnNs1yH1yFFYB9-19" edge="1">
          <mxGeometry relative="1" as="geometry">
            <mxPoint x="581" y="407" as="targetPoint" />
          </mxGeometry>
        </mxCell>
        <mxCell id="2JWjzQQnNs1yH1yFFYB9-28" value="" style="shape=parallelogram;perimeter=parallelogramPerimeter;whiteSpace=wrap;html=1;fixedSize=1;rotation=-90;fillColor=#d5e8d4;strokeColor=#82b366;gradientColor=none;" parent="1" vertex="1">
          <mxGeometry x="425" y="373" width="196" height="66" as="geometry" />
        </mxCell>
        <mxCell id="2JWjzQQnNs1yH1yFFYB9-33" value="" style="endArrow=none;html=1;rounded=0;fontSize=12;startSize=8;endSize=8;curved=1;strokeWidth=2;strokeColor=#7EA6E0;" parent="1" edge="1">
          <mxGeometry width="50" height="50" relative="1" as="geometry">
            <mxPoint x="489" y="406.5" as="sourcePoint" />
            <mxPoint x="512" y="406.48" as="targetPoint" />
          </mxGeometry>
        </mxCell>
        <mxCell id="2JWjzQQnNs1yH1yFFYB9-34" value="" style="endArrow=none;html=1;rounded=0;fontSize=12;startSize=8;endSize=8;curved=1;strokeWidth=2;strokeColor=#7EA6E0;entryX=0.496;entryY=0.966;entryDx=0;entryDy=0;entryPerimeter=0;dashed=1;" parent="1" target="2JWjzQQnNs1yH1yFFYB9-28" edge="1">
          <mxGeometry width="50" height="50" relative="1" as="geometry">
            <mxPoint x="511.5" y="406.5" as="sourcePoint" />
            <mxPoint x="534.5" y="406.5" as="targetPoint" />
          </mxGeometry>
        </mxCell>
        <mxCell id="2JWjzQQnNs1yH1yFFYB9-35" value="&lt;font face=&quot;Tahoma&quot;&gt;&lt;b&gt;Primer Filtrado&lt;/b&gt;&lt;/font&gt;" style="text;html=1;align=center;verticalAlign=middle;resizable=0;points=[];autosize=1;strokeColor=none;fillColor=none;fontSize=16;" parent="1" vertex="1">
          <mxGeometry x="453.5" y="282" width="139" height="32" as="geometry" />
        </mxCell>
        <mxCell id="2JWjzQQnNs1yH1yFFYB9-38" style="edgeStyle=orthogonalEdgeStyle;rounded=0;orthogonalLoop=1;jettySize=auto;html=1;exitX=0.875;exitY=0.5;exitDx=0;exitDy=0;exitPerimeter=0;entryX=0;entryY=0.5;entryDx=0;entryDy=0;entryPerimeter=0;fontSize=12;startSize=8;endSize=8;strokeWidth=2;strokeColor=#7EA6E0;" parent="1" target="2JWjzQQnNs1yH1yFFYB9-43" edge="1">
          <mxGeometry relative="1" as="geometry">
            <mxPoint x="709.25" y="359.5" as="sourcePoint" />
            <mxPoint x="893.1280000000002" y="361.10799999999995" as="targetPoint" />
            <Array as="points">
              <mxPoint x="854" y="359" />
              <mxPoint x="854" y="417" />
            </Array>
          </mxGeometry>
        </mxCell>
        <mxCell id="2JWjzQQnNs1yH1yFFYB9-39" value="" style="shape=parallelogram;perimeter=parallelogramPerimeter;whiteSpace=wrap;html=1;fixedSize=1;rotation=-90;fillColor=#e1d5e7;strokeColor=#9673a6;" parent="1" vertex="1">
          <mxGeometry x="699" y="326.5" width="196" height="66" as="geometry" />
        </mxCell>
        <mxCell id="2JWjzQQnNs1yH1yFFYB9-40" value="" style="endArrow=none;html=1;rounded=0;fontSize=12;startSize=8;endSize=8;curved=1;strokeWidth=2;strokeColor=#7EA6E0;" parent="1" edge="1">
          <mxGeometry width="50" height="50" relative="1" as="geometry">
            <mxPoint x="763" y="360" as="sourcePoint" />
            <mxPoint x="786" y="359.98" as="targetPoint" />
          </mxGeometry>
        </mxCell>
        <mxCell id="2JWjzQQnNs1yH1yFFYB9-41" value="" style="endArrow=none;html=1;rounded=0;fontSize=12;startSize=8;endSize=8;curved=1;strokeWidth=2;strokeColor=#7EA6E0;entryX=0.496;entryY=0.966;entryDx=0;entryDy=0;entryPerimeter=0;dashed=1;" parent="1" target="2JWjzQQnNs1yH1yFFYB9-39" edge="1">
          <mxGeometry width="50" height="50" relative="1" as="geometry">
            <mxPoint x="785.5" y="360" as="sourcePoint" />
            <mxPoint x="808.5" y="360" as="targetPoint" />
          </mxGeometry>
        </mxCell>
        <mxCell id="2JWjzQQnNs1yH1yFFYB9-42" value="&lt;font face=&quot;Tahoma&quot;&gt;&lt;b&gt;Segundo Filtrado&lt;/b&gt;&lt;/font&gt;" style="text;html=1;align=center;verticalAlign=middle;resizable=0;points=[];autosize=1;strokeColor=none;fillColor=none;fontSize=16;" parent="1" vertex="1">
          <mxGeometry x="719.5" y="235.5" width="155" height="32" as="geometry" />
        </mxCell>
        <mxCell id="2JWjzQQnNs1yH1yFFYB9-48" value="&lt;span style=&quot;font-size: 16px;&quot;&gt;&lt;font face=&quot;Tahoma&quot;&gt;&lt;b&gt;Conjunto&amp;nbsp;&lt;/b&gt;&lt;/font&gt;&lt;/span&gt;&lt;div&gt;&lt;span style=&quot;font-size: 16px;&quot;&gt;&lt;font face=&quot;Tahoma&quot;&gt;&lt;b&gt;Potencial&lt;/b&gt;&lt;/font&gt;&lt;/span&gt;&lt;/div&gt;" style="ellipse;shape=cloud;whiteSpace=wrap;html=1;fillColor=#fff2cc;strokeColor=#d6b656;strokeWidth=2;" parent="1" vertex="1">
          <mxGeometry x="586.5" y="318.5" width="142" height="82" as="geometry" />
        </mxCell>
        <mxCell id="2JWjzQQnNs1yH1yFFYB9-49" value="" style="group" parent="1" vertex="1" connectable="0">
          <mxGeometry x="907" y="377" width="122" height="151" as="geometry" />
        </mxCell>
        <mxCell id="2JWjzQQnNs1yH1yFFYB9-46" value="" style="group" parent="2JWjzQQnNs1yH1yFFYB9-49" vertex="1" connectable="0">
          <mxGeometry x="10" width="82" height="101" as="geometry" />
        </mxCell>
        <mxCell id="2JWjzQQnNs1yH1yFFYB9-43" value="" style="shape=note;whiteSpace=wrap;html=1;backgroundOutline=1;darkOpacity=0.05;size=18;strokeWidth=2;fillColor=#ffe6cc;strokeColor=#d79b00;" parent="2JWjzQQnNs1yH1yFFYB9-46" vertex="1">
          <mxGeometry width="62" height="81" as="geometry" />
        </mxCell>
        <mxCell id="2JWjzQQnNs1yH1yFFYB9-44" value="" style="shape=note;whiteSpace=wrap;html=1;backgroundOutline=1;darkOpacity=0.05;size=18;strokeWidth=2;fillColor=#ffe6cc;strokeColor=#d79b00;" parent="2JWjzQQnNs1yH1yFFYB9-46" vertex="1">
          <mxGeometry x="10" y="10" width="62" height="81" as="geometry" />
        </mxCell>
        <mxCell id="2JWjzQQnNs1yH1yFFYB9-45" value="" style="shape=note;whiteSpace=wrap;html=1;backgroundOutline=1;darkOpacity=0.05;size=18;strokeWidth=2;fillColor=#ffe6cc;strokeColor=#d79b00;" parent="2JWjzQQnNs1yH1yFFYB9-46" vertex="1">
          <mxGeometry x="20" y="20" width="62" height="81" as="geometry" />
        </mxCell>
        <mxCell id="2JWjzQQnNs1yH1yFFYB9-47" value="&lt;font face=&quot;Tahoma&quot;&gt;&lt;b&gt;Lista Estudios&lt;/b&gt;&lt;/font&gt;&lt;div&gt;&lt;font face=&quot;Tahoma&quot;&gt;&lt;b&gt;Primarios&lt;/b&gt;&lt;/font&gt;&lt;/div&gt;" style="text;html=1;align=center;verticalAlign=middle;resizable=0;points=[];autosize=1;strokeColor=none;fillColor=none;fontSize=16;" parent="2JWjzQQnNs1yH1yFFYB9-49" vertex="1">
          <mxGeometry x="-7" y="99" width="129" height="52" as="geometry" />
        </mxCell>
        <mxCell id="2JWjzQQnNs1yH1yFFYB9-50" value="" style="endArrow=none;html=1;rounded=0;fontSize=12;startSize=8;endSize=8;curved=1;strokeColor=#7EA6E0;strokeWidth=2;" parent="1" edge="1">
          <mxGeometry width="50" height="50" relative="1" as="geometry">
            <mxPoint x="580" y="453.5" as="sourcePoint" />
            <mxPoint x="580" y="362.5" as="targetPoint" />
          </mxGeometry>
        </mxCell>
        <mxCell id="2JWjzQQnNs1yH1yFFYB9-51" value="" style="endArrow=classic;html=1;rounded=0;fontSize=12;startSize=8;endSize=8;curved=1;strokeWidth=2;strokeColor=#7EA6E0;" parent="1" edge="1">
          <mxGeometry width="50" height="50" relative="1" as="geometry">
            <mxPoint x="580" y="364" as="sourcePoint" />
            <mxPoint x="605" y="364" as="targetPoint" />
          </mxGeometry>
        </mxCell>
        <mxCell id="2JWjzQQnNs1yH1yFFYB9-58" value="" style="group" parent="1" vertex="1" connectable="0">
          <mxGeometry x="624.0007317073171" y="430.0033663366337" width="60.82926829268297" height="75.33663366336634" as="geometry" />
        </mxCell>
        <mxCell id="2JWjzQQnNs1yH1yFFYB9-55" value="" style="shape=note;whiteSpace=wrap;html=1;backgroundOutline=1;darkOpacity=0.05;size=13;strokeWidth=2;fillColor=#ffe6cc;strokeColor=#d79b00;" parent="2JWjzQQnNs1yH1yFFYB9-58" vertex="1">
          <mxGeometry width="40.829268292682926" height="55.33663366336634" as="geometry" />
        </mxCell>
        <mxCell id="2JWjzQQnNs1yH1yFFYB9-56" value="" style="shape=note;whiteSpace=wrap;html=1;backgroundOutline=1;darkOpacity=0.05;size=13;strokeWidth=2;fillColor=#ffe6cc;strokeColor=#d79b00;" parent="2JWjzQQnNs1yH1yFFYB9-58" vertex="1">
          <mxGeometry x="10" y="10" width="40.829268292682926" height="55.33663366336634" as="geometry" />
        </mxCell>
        <mxCell id="2JWjzQQnNs1yH1yFFYB9-57" value="" style="shape=note;whiteSpace=wrap;html=1;backgroundOutline=1;darkOpacity=0.05;size=13;strokeWidth=2;fillColor=#ffe6cc;strokeColor=#d79b00;" parent="2JWjzQQnNs1yH1yFFYB9-58" vertex="1">
          <mxGeometry x="20" y="20" width="40.829268292682926" height="55.33663366336634" as="geometry" />
        </mxCell>
        <mxCell id="2JWjzQQnNs1yH1yFFYB9-59" value="&lt;font face=&quot;Tahoma&quot;&gt;&lt;b&gt;Subconjunto&lt;/b&gt;&lt;/font&gt;&lt;div&gt;&lt;font face=&quot;Tahoma&quot;&gt;&lt;b&gt;Estudios&lt;/b&gt;&lt;/font&gt;&lt;/div&gt;&lt;div&gt;&lt;font face=&quot;Tahoma&quot;&gt;&lt;b&gt;Primarios&lt;/b&gt;&lt;/font&gt;&lt;/div&gt;" style="text;html=1;align=center;verticalAlign=middle;resizable=0;points=[];autosize=1;strokeColor=none;fillColor=none;fontSize=16;" parent="1" vertex="1">
          <mxGeometry x="594.42" y="498" width="120" height="73" as="geometry" />
        </mxCell>
        <mxCell id="2JWjzQQnNs1yH1yFFYB9-60" value="" style="endArrow=classic;html=1;rounded=0;fontSize=12;startSize=8;endSize=8;curved=1;strokeWidth=2;strokeColor=#7EA6E0;entryX=0.016;entryY=0.404;entryDx=0;entryDy=0;entryPerimeter=0;" parent="1" target="2JWjzQQnNs1yH1yFFYB9-55" edge="1">
          <mxGeometry width="50" height="50" relative="1" as="geometry">
            <mxPoint x="579" y="452" as="sourcePoint" />
            <mxPoint x="604" y="452" as="targetPoint" />
          </mxGeometry>
        </mxCell>
        <mxCell id="2JWjzQQnNs1yH1yFFYB9-61" style="edgeStyle=orthogonalEdgeStyle;rounded=0;orthogonalLoop=1;jettySize=auto;html=1;exitX=0;exitY=0;exitDx=40.829268292682926;exitDy=34.16831683168317;exitPerimeter=0;entryX=0;entryY=0.5;entryDx=0;entryDy=0;entryPerimeter=0;fontSize=12;startSize=8;endSize=8;strokeWidth=2;strokeColor=#7EA6E0;" parent="1" source="2JWjzQQnNs1yH1yFFYB9-57" target="2JWjzQQnNs1yH1yFFYB9-43" edge="1">
          <mxGeometry relative="1" as="geometry">
            <Array as="points">
              <mxPoint x="854" y="484" />
              <mxPoint x="854" y="417" />
            </Array>
          </mxGeometry>
        </mxCell>
      </root>
    </mxGraphModel>
  </diagram>
</mxfile>
